# xmcd
#
# Track frame offsets: 
#        150
#        14487
#        31485
#        46860
#        58705
#        76905
#        90625
#        105607
#        117890
#        134812
#        148370
#        163015
#        173550
#        191727
#        224840
#        241465
#        257150
#        277387
#        291727
#        306717
#        323342
#
# Disc length: 4563 seconds
#
# Revision: 2
# Processed by: cddbd v1.4PL0 Copyright (c) Steve Scherf et al.
# Submitted via: ExactAudioCopy v0.90b4
#
DISCID=5211d115
DTITLE=Dwight Yoakam - Reprise Please Baby (The Warner Bros. Years) - 
DTITLE=Disc 4
DYEAR=2002
DGENRE=Country
TTITLE0=This Drinkin' Will Kill Me
TTITLE1=It Won't Hurt
TTITLE2=I'll Be Gone
TTITLE3=Floyd County
TTITLE4=You're The One
TTITLE5=Twenty Years
TTITLE6=Please Daddy
TTITLE7=Miner's Prayer
TTITLE8=I Sang Dixie
TTITLE9=Bury Me
TTITLE10=Golden Ring (With Kelly Willis)
TTITLE11=Take Me (With Kelly Willis)
TTITLE12=Sin City
TTITLE13=Truckin' (Live)
TTITLE14=Grand Tour (Live)
TTITLE15=Oh Lonesome Me (Live)
TTITLE16=Today I Started Loving You Again (Live)
TTITLE17=Mystery Train (Live)
TTITLE18=Can't Tou Hear Me Calling (Live)
TTITLE19=Heartaches By The Number (Live)
TTITLE20=My Bucket's Got A Hole In It (Live)
EXTD=
EXTT0=
EXTT1=
EXTT2=
EXTT3=
EXTT4=
EXTT5=
EXTT6=
EXTT7=
EXTT8=
EXTT9=
EXTT10=with Kelly Willis
EXTT11=with Kelly Willis
EXTT12=
EXTT13=
EXTT14=
EXTT15=
EXTT16=
EXTT17=
EXTT18=
EXTT19=
EXTT20=
PLAYORDER=
